<mxfile host="Electron" agent="Mozilla/5.0 (X11; Linux x86_64) AppleWebKit/537.36 (KHTML, like Gecko) draw.io/27.0.9 Chrome/134.0.6998.205 Electron/35.4.0 Safari/537.36" version="27.0.9">
  <diagram name="Page-1" id="42789a77-a242-8287-6e28-9cd8cfd52e62">
    <mxGraphModel dx="1426" dy="859" grid="1" gridSize="10" guides="1" tooltips="1" connect="1" arrows="1" fold="1" page="1" pageScale="1" pageWidth="1100" pageHeight="850" background="none" math="0" shadow="0">
      <root>
        <mxCell id="0" />
        <mxCell id="1" parent="0" />
        <mxCell id="1ea317790d2ca983-12" style="edgeStyle=none;rounded=1;html=1;labelBackgroundColor=#FFFFFF;startArrow=none;startFill=0;startSize=5;endArrow=classicThin;endFill=1;endSize=5;jettySize=auto;orthogonalLoop=1;strokeColor=#B3B3B3;strokeWidth=1;fontFamily=Verdana;fontSize=12" parent="1" source="1ea317790d2ca983-1" target="1ea317790d2ca983-2" edge="1">
          <mxGeometry relative="1" as="geometry" />
        </mxCell>
        <mxCell id="HcVnFmdXPQnl5_f3OCca-1" value="&lt;font style=&quot;font-size: 12px;&quot; face=&quot;Verdana&quot;&gt;identified_by&lt;/font&gt;" style="edgeLabel;html=1;align=center;verticalAlign=middle;resizable=0;points=[];labelBackgroundColor=#FFFFFF;" parent="1ea317790d2ca983-12" vertex="1" connectable="0">
          <mxGeometry x="-0.08" y="-2" relative="1" as="geometry">
            <mxPoint as="offset" />
          </mxGeometry>
        </mxCell>
        <mxCell id="1ea317790d2ca983-13" value="classified_as" style="edgeStyle=none;rounded=1;html=1;labelBackgroundColor=#FFFFFF;startArrow=none;startFill=0;startSize=5;endArrow=classicThin;endFill=1;endSize=5;jettySize=auto;orthogonalLoop=1;strokeColor=#B3B3B3;strokeWidth=1;fontFamily=Verdana;fontSize=12" parent="1" source="1ea317790d2ca983-1" target="1ea317790d2ca983-9" edge="1">
          <mxGeometry relative="1" as="geometry" />
        </mxCell>
        <mxCell id="1ea317790d2ca983-14" value="creat&lt;span style=&quot;background-color: light-dark(rgb(255, 255, 255), rgb(18, 18, 18)); color: light-dark(rgb(0, 0, 0), rgb(255, 255, 255));&quot;&gt;ed_by&lt;/span&gt;" style="edgeStyle=none;rounded=1;html=1;labelBackgroundColor=#FFFFFF;startArrow=none;startFill=0;startSize=5;endArrow=classicThin;endFill=1;endSize=5;jettySize=auto;orthogonalLoop=1;strokeColor=#B3B3B3;strokeWidth=1;fontFamily=Verdana;fontSize=12" parent="1" source="1ea317790d2ca983-1" target="1ea317790d2ca983-3" edge="1">
          <mxGeometry relative="1" as="geometry" />
        </mxCell>
        <mxCell id="1ea317790d2ca983-1" value="PropositionalObject&lt;div&gt;&lt;span style=&quot;font-size: 11px; background-color: initial;&quot;&gt;(W&lt;/span&gt;&lt;span style=&quot;font-size: 11px; background-color: initial;&quot;&gt;ork)&lt;/span&gt;&lt;/div&gt;" style="ellipse;whiteSpace=wrap;html=1;rounded=0;shadow=1;comic=0;labelBackgroundColor=none;strokeWidth=2;fontFamily=Verdana;fontSize=12;align=center;fillColor=#ffff88;strokeColor=#36393d;" parent="1" vertex="1">
          <mxGeometry x="440" y="270" width="130" height="60" as="geometry" />
        </mxCell>
        <mxCell id="1ea317790d2ca983-2" value="&lt;span&gt;Name&lt;/span&gt;&lt;div&gt;&lt;span&gt;&lt;font style=&quot;font-size: 9px;&quot;&gt;(= literal title + language)&lt;/font&gt;&lt;/span&gt;&lt;/div&gt;" style="ellipse;whiteSpace=wrap;html=1;rounded=0;shadow=1;comic=0;labelBackgroundColor=none;strokeWidth=1;fontFamily=Verdana;fontSize=12;align=center;fillColor=#f0a30a;strokeColor=#BD7000;fontColor=#000000;" parent="1" vertex="1">
          <mxGeometry x="250" y="180" width="130" height="60" as="geometry" />
        </mxCell>
        <mxCell id="1ea317790d2ca983-15" value="" style="edgeStyle=none;rounded=1;html=1;labelBackgroundColor=none;startArrow=none;startFill=0;startSize=5;endArrow=classicThin;endFill=1;endSize=5;jettySize=auto;orthogonalLoop=1;strokeColor=#B3B3B3;strokeWidth=1;fontFamily=Verdana;fontSize=12" parent="1" source="1ea317790d2ca983-3" target="1ea317790d2ca983-4" edge="1">
          <mxGeometry relative="1" as="geometry" />
        </mxCell>
        <mxCell id="i2n3Vg-yOXtwwbEFyLAX-5" value="&lt;font face=&quot;Verdana&quot; style=&quot;font-size: 12px;&quot;&gt;influenced_by&lt;/font&gt;" style="edgeLabel;html=1;align=center;verticalAlign=middle;resizable=0;points=[];" parent="1ea317790d2ca983-15" vertex="1" connectable="0">
          <mxGeometry x="-0.0644" relative="1" as="geometry">
            <mxPoint y="-1" as="offset" />
          </mxGeometry>
        </mxCell>
        <mxCell id="1ea317790d2ca983-3" value="&lt;span&gt;Creation&lt;/span&gt;" style="ellipse;whiteSpace=wrap;html=1;rounded=0;shadow=1;comic=0;labelBackgroundColor=none;strokeWidth=1;fontFamily=Verdana;fontSize=12;align=center;fillColor=#cce5ff;strokeColor=#36393d;" parent="1" vertex="1">
          <mxGeometry x="520" y="380" width="130" height="60" as="geometry" />
        </mxCell>
        <mxCell id="1ea317790d2ca983-4" value="&lt;span&gt;Person&lt;/span&gt;&lt;div&gt;&lt;span&gt;&lt;font style=&quot;font-size: 9px;&quot;&gt;(= director)&lt;/font&gt;&lt;/span&gt;&lt;/div&gt;" style="ellipse;whiteSpace=wrap;html=1;rounded=0;shadow=1;comic=0;labelBackgroundColor=none;strokeWidth=1;fontFamily=Verdana;fontSize=12;align=center;fillColor=#ffcccc;strokeColor=#36393d;" parent="1" vertex="1">
          <mxGeometry x="420" y="480" width="130" height="60" as="geometry" />
        </mxCell>
        <mxCell id="1ea317790d2ca983-9" value="Type&lt;div&gt;&lt;font style=&quot;font-size: 11px;&quot;&gt;(Abstract Work)&lt;/font&gt;&lt;/div&gt;" style="ellipse;whiteSpace=wrap;html=1;rounded=0;shadow=1;comic=0;labelBackgroundColor=none;strokeWidth=1;fontFamily=Verdana;fontSize=12;align=center;fillColor=#ffcc99;strokeColor=#36393d;" parent="1" vertex="1">
          <mxGeometry x="440" y="140" width="130" height="60" as="geometry" />
        </mxCell>
        <mxCell id="HcVnFmdXPQnl5_f3OCca-2" value="" style="edgeStyle=none;rounded=1;html=1;labelBackgroundColor=#FFFFFF;startArrow=none;startFill=0;startSize=5;endArrow=classicThin;endFill=1;endSize=5;jettySize=auto;orthogonalLoop=1;strokeColor=#B3B3B3;strokeWidth=1;fontFamily=Verdana;fontSize=12;" parent="1" source="1ea317790d2ca983-3" target="HcVnFmdXPQnl5_f3OCca-3" edge="1">
          <mxGeometry relative="1" as="geometry">
            <mxPoint x="888" y="260" as="sourcePoint" />
          </mxGeometry>
        </mxCell>
        <mxCell id="HcVnFmdXPQnl5_f3OCca-4" value="&lt;font style=&quot;font-size: 12px;&quot; face=&quot;Verdana&quot;&gt;timespan&lt;/font&gt;" style="edgeLabel;html=1;align=center;verticalAlign=middle;resizable=0;points=[];labelBackgroundColor=#FFFFFF;" parent="HcVnFmdXPQnl5_f3OCca-2" vertex="1" connectable="0">
          <mxGeometry x="-0.1032" y="-1" relative="1" as="geometry">
            <mxPoint y="1" as="offset" />
          </mxGeometry>
        </mxCell>
        <mxCell id="HcVnFmdXPQnl5_f3OCca-3" value="&lt;span&gt;TimeSpan&lt;/span&gt;&lt;div&gt;&lt;span&gt;&lt;font style=&quot;font-size: 9px;&quot;&gt;(= premiere date)&lt;/font&gt;&lt;/span&gt;&lt;/div&gt;" style="ellipse;whiteSpace=wrap;html=1;rounded=0;shadow=1;comic=0;labelBackgroundColor=none;strokeWidth=1;fontFamily=Verdana;fontSize=12;align=center;fillColor=#b0e3e6;strokeColor=#0e8088;" parent="1" vertex="1">
          <mxGeometry x="620" y="480" width="130" height="60" as="geometry" />
        </mxCell>
        <mxCell id="i2n3Vg-yOXtwwbEFyLAX-3" value="&lt;span&gt;AttributeAssignment&lt;/span&gt;" style="ellipse;whiteSpace=wrap;html=1;rounded=0;shadow=1;comic=0;labelBackgroundColor=none;strokeWidth=1;fontFamily=Verdana;fontSize=12;align=center;fillColor=#cce5ff;strokeColor=#36393d;" parent="1" vertex="1">
          <mxGeometry x="650" y="210" width="130" height="60" as="geometry" />
        </mxCell>
        <mxCell id="i2n3Vg-yOXtwwbEFyLAX-4" value="attributed_by" style="edgeStyle=none;rounded=1;html=1;labelBackgroundColor=#FFFFFF;startArrow=none;startFill=0;startSize=5;endArrow=classicThin;endFill=1;endSize=5;jettySize=auto;orthogonalLoop=1;strokeColor=#B3B3B3;strokeWidth=1;fontFamily=Verdana;fontSize=12" parent="1" source="1ea317790d2ca983-1" target="i2n3Vg-yOXtwwbEFyLAX-3" edge="1">
          <mxGeometry relative="1" as="geometry">
            <mxPoint x="572" y="295" as="sourcePoint" />
            <mxPoint x="688" y="265" as="targetPoint" />
          </mxGeometry>
        </mxCell>
        <mxCell id="X5KbaktwbN9__CPgJrAm-1" value="&lt;span&gt;HumanMadeObject&lt;/span&gt;&lt;div&gt;&lt;span&gt;&lt;font style=&quot;font-size: 9px;&quot;&gt;(= show programme)&lt;/font&gt;&lt;/span&gt;&lt;/div&gt;" style="ellipse;whiteSpace=wrap;html=1;rounded=0;shadow=1;comic=0;labelBackgroundColor=none;strokeWidth=1;fontFamily=Verdana;fontSize=12;align=center;fillColor=#ffff88;strokeColor=#36393d;" parent="1" vertex="1">
          <mxGeometry x="650" y="100" width="130" height="60" as="geometry" />
        </mxCell>
        <mxCell id="X5KbaktwbN9__CPgJrAm-2" value="assigned" style="edgeStyle=none;rounded=1;html=1;labelBackgroundColor=#FFFFFF;startArrow=none;startFill=0;startSize=5;endArrow=classicThin;endFill=1;endSize=5;jettySize=auto;orthogonalLoop=1;strokeColor=#B3B3B3;strokeWidth=1;fontFamily=Verdana;fontSize=12" parent="1" source="i2n3Vg-yOXtwwbEFyLAX-3" target="X5KbaktwbN9__CPgJrAm-1" edge="1">
          <mxGeometry relative="1" as="geometry">
            <mxPoint x="817" y="238" as="sourcePoint" />
            <mxPoint x="883" y="262" as="targetPoint" />
          </mxGeometry>
        </mxCell>
        <mxCell id="X5KbaktwbN9__CPgJrAm-3" value="&lt;span&gt;LinguisticObject&lt;/span&gt;&lt;div&gt;&lt;span&gt;&lt;font style=&quot;font-size: 9px;&quot;&gt;(= play)&lt;/font&gt;&lt;/span&gt;&lt;/div&gt;" style="ellipse;whiteSpace=wrap;html=1;rounded=0;shadow=1;comic=0;labelBackgroundColor=none;strokeWidth=1;fontFamily=Verdana;fontSize=12;align=center;fillColor=#ffff88;strokeColor=#36393d;" parent="1" vertex="1">
          <mxGeometry x="250" y="360" width="130" height="60" as="geometry" />
        </mxCell>
        <mxCell id="X5KbaktwbN9__CPgJrAm-4" value="influen&lt;span style=&quot;background-color: light-dark(rgb(255, 255, 255), rgb(18, 18, 18)); color: light-dark(rgb(0, 0, 0), rgb(255, 255, 255));&quot;&gt;ced_by&lt;/span&gt;" style="edgeStyle=none;rounded=1;html=1;labelBackgroundColor=#FFFFFF;startArrow=none;startFill=0;startSize=5;endArrow=classicThin;endFill=1;endSize=5;jettySize=auto;orthogonalLoop=1;strokeColor=#B3B3B3;strokeWidth=1;fontFamily=Verdana;fontSize=12" parent="1" source="1ea317790d2ca983-1" target="X5KbaktwbN9__CPgJrAm-3" edge="1">
          <mxGeometry relative="1" as="geometry">
            <mxPoint x="515" y="340" as="sourcePoint" />
            <mxPoint x="515" y="410" as="targetPoint" />
          </mxGeometry>
        </mxCell>
      </root>
    </mxGraphModel>
  </diagram>
</mxfile>
